<?xml version="1.0" encoding="UTF-8"?>
<!-- Generator: visioncortex VTracer 0.6.3 -->
<svg version="1.1" xmlns="http://www.w3.org/2000/svg" width="1280" height="1280">
<path d="M0 0 C1.62 -0 3.24 -0 4.86 -0.01 C9.29 -0.01 13.73 -0.01 18.16 -0.01 C22.95 -0.01 27.74 -0.02 32.53 -0.02 C41.9 -0.03 51.28 -0.03 60.65 -0.03 C68.27 -0.03 75.89 -0.04 83.52 -0.04 C105.14 -0.05 126.76 -0.05 148.38 -0.05 C149.55 -0.05 150.71 -0.05 151.91 -0.05 C153.08 -0.05 154.25 -0.05 155.45 -0.05 C174.35 -0.05 193.25 -0.06 212.15 -0.07 C231.57 -0.09 251 -0.1 270.42 -0.1 C281.32 -0.09 292.22 -0.1 303.11 -0.11 C312.39 -0.12 321.67 -0.12 330.95 -0.11 C335.68 -0.11 340.41 -0.11 345.14 -0.12 C349.48 -0.13 353.82 -0.12 358.15 -0.12 C359.72 -0.11 361.28 -0.12 362.84 -0.12 C389.36 -0.21 389.36 -0.21 398.59 7.26 C407.23 17.72 406.11 30.62 406.11 43.52 C406.11 44.94 406.11 46.36 406.12 47.79 C406.13 50.83 406.13 53.88 406.13 56.92 C406.14 61.74 406.16 66.55 406.18 71.37 C406.18 73.02 406.19 74.68 406.19 76.33 C406.2 77.16 406.2 77.98 406.2 78.84 C406.25 90.03 406.28 101.23 406.29 112.43 C406.3 120.01 406.32 127.58 406.36 135.15 C406.38 139.16 406.39 143.16 406.39 147.16 C406.38 150.92 406.4 154.68 406.42 158.44 C406.43 159.81 406.43 161.19 406.42 162.57 C406.42 164.45 406.43 166.33 406.45 168.22 C406.46 169.27 406.46 170.32 406.46 171.4 C406.79 174.21 406.79 174.21 408.54 176.47 C411.89 178.77 414.21 178.64 418.25 178.64 C418.99 178.65 419.72 178.65 420.48 178.66 C422.95 178.68 425.41 178.66 427.88 178.65 C429.65 178.66 431.41 178.66 433.18 178.67 C437.98 178.69 442.78 178.68 447.59 178.67 C452.61 178.66 457.63 178.67 462.65 178.68 C471.08 178.68 479.52 178.67 487.95 178.66 C497.71 178.63 507.46 178.64 517.21 178.66 C525.58 178.68 533.96 178.68 542.33 178.67 C547.33 178.67 552.33 178.67 557.33 178.68 C562.03 178.69 566.73 178.68 571.43 178.66 C573.16 178.65 574.89 178.66 576.61 178.66 C578.97 178.68 581.32 178.66 583.68 178.64 C585.66 178.64 585.66 178.64 587.67 178.64 C590.99 178.37 590.99 178.37 593.39 176.47 C595.38 173.51 595.47 171.76 595.47 168.2 C595.48 166.98 595.49 165.77 595.5 164.52 C595.5 163.17 595.49 161.83 595.48 160.48 C595.48 159.07 595.49 157.65 595.5 156.23 C595.52 153.18 595.52 150.12 595.51 147.07 C595.5 142.23 595.52 137.39 595.54 132.55 C595.57 124.89 595.58 117.22 595.59 109.55 C595.59 95.86 595.62 82.17 595.67 68.47 C595.69 63.67 595.69 58.88 595.69 54.08 C595.69 51.07 595.7 48.07 595.71 45.07 C595.71 43.03 595.7 41 595.7 38.97 C595.8 14.23 595.8 14.23 603.97 6.13 C614.52 -1.44 627.59 -0.01 640 0 C641.62 -0 643.24 -0 644.86 -0.01 C649.29 -0.01 653.73 -0.01 658.16 -0.01 C662.95 -0.01 667.74 -0.02 672.53 -0.02 C681.9 -0.03 691.28 -0.03 700.65 -0.03 C708.27 -0.03 715.89 -0.04 723.52 -0.04 C745.14 -0.05 766.76 -0.05 788.38 -0.05 C789.55 -0.05 790.71 -0.05 791.91 -0.05 C793.08 -0.05 794.25 -0.05 795.45 -0.05 C814.35 -0.05 833.25 -0.06 852.15 -0.07 C871.57 -0.09 891 -0.1 910.42 -0.1 C921.32 -0.09 932.22 -0.1 943.11 -0.11 C952.39 -0.12 961.67 -0.12 970.95 -0.11 C975.68 -0.11 980.41 -0.11 985.14 -0.12 C989.48 -0.13 993.82 -0.12 998.15 -0.12 C999.72 -0.11 1001.28 -0.12 1002.84 -0.12 C1029.36 -0.21 1029.36 -0.21 1038.59 7.26 C1047.55 18.1 1046.11 31.82 1046.1 45.13 C1046.1 46.75 1046.1 48.36 1046.11 49.98 C1046.11 54.4 1046.11 58.82 1046.11 63.24 C1046.11 68.02 1046.12 72.8 1046.12 77.57 C1046.13 86.92 1046.13 96.27 1046.13 105.63 C1046.13 113.23 1046.13 120.83 1046.14 128.43 C1046.15 150 1046.15 171.57 1046.15 193.13 C1046.15 194.3 1046.15 195.46 1046.15 196.65 C1046.15 198.4 1046.15 198.4 1046.15 200.18 C1046.15 219.03 1046.16 237.89 1046.17 256.74 C1046.19 276.11 1046.19 295.48 1046.19 314.86 C1046.19 325.73 1046.2 336.6 1046.21 347.47 C1046.22 356.72 1046.22 365.98 1046.21 375.23 C1046.21 379.95 1046.21 384.67 1046.22 389.39 C1046.22 393.71 1046.22 398.04 1046.21 402.37 C1046.21 403.92 1046.21 405.48 1046.22 407.04 C1046.31 434.56 1046.31 434.56 1039.2 441.97 C1028.89 451.59 1015.95 450.28 1002.58 450.28 C1001.16 450.28 999.74 450.28 998.31 450.29 C995.27 450.29 992.22 450.3 989.18 450.3 C984.36 450.31 979.55 450.32 974.73 450.34 C973.08 450.35 971.42 450.36 969.77 450.36 C968.94 450.37 968.12 450.37 967.26 450.37 C956.07 450.41 944.87 450.45 933.67 450.46 C926.09 450.47 918.52 450.49 910.94 450.53 C906.94 450.55 902.94 450.56 898.94 450.56 C895.18 450.55 891.42 450.57 887.66 450.59 C886.28 450.6 884.91 450.6 883.53 450.59 C881.65 450.58 879.76 450.6 877.88 450.62 C876.83 450.62 875.78 450.63 874.69 450.63 C871.89 450.96 871.89 450.96 869.63 452.71 C867.33 456.06 867.46 458.38 867.46 462.42 C867.45 463.16 867.44 463.89 867.44 464.65 C867.42 467.12 867.43 469.58 867.45 472.05 C867.44 473.82 867.44 475.58 867.43 477.35 C867.41 482.15 867.42 486.95 867.43 491.75 C867.44 496.78 867.43 501.8 867.42 506.82 C867.42 515.25 867.42 523.69 867.44 532.12 C867.47 541.87 867.46 551.63 867.44 561.38 C867.42 569.75 867.42 578.12 867.43 586.49 C867.43 591.5 867.43 596.5 867.42 601.5 C867.41 606.2 867.42 610.9 867.44 615.6 C867.44 617.33 867.44 619.06 867.43 620.78 C867.42 623.14 867.44 625.49 867.46 627.85 C867.46 629.16 867.46 630.48 867.46 631.84 C867.73 635.16 867.73 635.16 869.63 637.56 C872.58 639.55 874.32 639.64 877.86 639.64 C879.07 639.65 880.28 639.66 881.52 639.67 C882.85 639.66 884.19 639.66 885.52 639.65 C886.93 639.65 888.34 639.66 889.75 639.67 C892.78 639.68 895.81 639.69 898.84 639.68 C903.65 639.67 908.45 639.69 913.26 639.71 C920.87 639.74 928.49 639.75 936.1 639.75 C949.7 639.76 963.3 639.79 976.89 639.84 C981.66 639.86 986.42 639.86 991.19 639.86 C994.17 639.86 997.16 639.86 1000.14 639.87 C1002.16 639.88 1004.17 639.87 1006.19 639.87 C1029.58 639.97 1029.58 639.97 1038.59 647.26 C1047.55 658.1 1046.11 671.82 1046.1 685.13 C1046.1 686.75 1046.1 688.36 1046.11 689.98 C1046.11 694.4 1046.11 698.82 1046.11 703.24 C1046.11 708.02 1046.12 712.8 1046.12 717.57 C1046.13 726.92 1046.13 736.27 1046.13 745.63 C1046.13 753.23 1046.13 760.83 1046.14 768.43 C1046.15 790 1046.15 811.57 1046.15 833.13 C1046.15 834.3 1046.15 835.46 1046.15 836.65 C1046.15 838.4 1046.15 838.4 1046.15 840.18 C1046.15 859.03 1046.16 877.89 1046.17 896.74 C1046.19 916.11 1046.19 935.48 1046.19 954.86 C1046.19 965.73 1046.2 976.6 1046.21 987.47 C1046.22 996.72 1046.22 1005.98 1046.21 1015.23 C1046.21 1019.95 1046.21 1024.67 1046.22 1029.39 C1046.22 1033.71 1046.22 1038.04 1046.21 1042.37 C1046.21 1043.92 1046.21 1045.48 1046.22 1047.04 C1046.31 1074.56 1046.31 1074.56 1039.2 1081.97 C1028.55 1091.91 1014.72 1090.28 1000.97 1090.27 C999.35 1090.27 997.74 1090.27 996.12 1090.27 C991.7 1090.28 987.28 1090.28 982.85 1090.28 C978.08 1090.28 973.3 1090.28 968.52 1090.29 C959.17 1090.3 949.82 1090.3 940.47 1090.3 C932.87 1090.3 925.27 1090.3 917.67 1090.31 C896.1 1090.32 874.53 1090.32 852.97 1090.32 C851.8 1090.32 850.64 1090.32 849.44 1090.32 C848.28 1090.32 847.12 1090.32 845.92 1090.32 C827.07 1090.32 808.21 1090.33 789.36 1090.34 C769.99 1090.36 750.61 1090.36 731.24 1090.36 C720.37 1090.36 709.5 1090.36 698.63 1090.38 C689.38 1090.38 680.12 1090.39 670.87 1090.38 C666.15 1090.38 661.43 1090.38 656.71 1090.39 C652.39 1090.39 648.06 1090.39 643.73 1090.38 C642.18 1090.38 640.62 1090.38 639.06 1090.39 C612.57 1090.48 612.57 1090.48 603.34 1083.01 C594.7 1072.54 595.82 1059.64 595.82 1046.75 C595.82 1045.33 595.82 1043.9 595.81 1042.48 C595.8 1039.44 595.8 1036.39 595.8 1033.35 C595.79 1028.53 595.77 1023.71 595.76 1018.9 C595.75 1017.24 595.74 1015.59 595.74 1013.94 C595.73 1013.11 595.73 1012.28 595.73 1011.43 C595.68 1000.23 595.65 989.04 595.64 977.84 C595.63 970.26 595.61 962.69 595.57 955.11 C595.55 951.11 595.54 947.11 595.54 943.1 C595.55 939.35 595.53 935.59 595.51 931.83 C595.5 930.45 595.5 929.07 595.51 927.7 C595.51 925.81 595.5 923.93 595.48 922.05 C595.47 921 595.47 919.95 595.47 918.86 C595.14 916.06 595.14 916.06 593.39 913.8 C590.04 911.5 587.72 911.63 583.68 911.63 C582.94 911.62 582.21 911.61 581.45 911.61 C578.98 911.59 576.52 911.6 574.05 911.62 C572.28 911.61 570.52 911.6 568.75 911.59 C563.95 911.58 559.15 911.58 554.34 911.6 C549.32 911.61 544.3 911.6 539.28 911.59 C530.85 911.58 522.41 911.59 513.98 911.61 C504.22 911.63 494.47 911.63 484.72 911.6 C476.35 911.59 467.98 911.58 459.6 911.59 C454.6 911.6 449.6 911.6 444.6 911.59 C439.9 911.58 435.2 911.58 430.5 911.61 C428.77 911.61 427.04 911.61 425.32 911.6 C422.96 911.59 420.61 911.61 418.25 911.63 C416.93 911.63 415.62 911.63 414.26 911.63 C410.94 911.89 410.94 911.89 408.54 913.8 C406.55 916.75 406.46 918.48 406.46 922.03 C406.45 923.24 406.44 924.45 406.43 925.69 C406.43 927.02 406.44 928.36 406.45 929.69 C406.45 931.1 406.44 932.51 406.43 933.92 C406.41 936.95 406.41 939.98 406.42 943.01 C406.43 947.82 406.41 952.62 406.39 957.43 C406.36 965.04 406.35 972.65 406.34 980.27 C406.34 993.87 406.31 1007.46 406.26 1021.06 C406.24 1025.83 406.24 1030.59 406.24 1035.36 C406.24 1038.34 406.23 1041.32 406.22 1044.31 C406.22 1046.33 406.23 1048.34 406.23 1050.36 C406.13 1074.75 406.13 1074.75 399.2 1081.97 C388.53 1091.93 374.66 1090.28 360.89 1090.27 C359.26 1090.27 357.64 1090.27 356.01 1090.27 C351.56 1090.28 347.12 1090.28 342.67 1090.28 C337.87 1090.28 333.06 1090.28 328.26 1090.29 C318.86 1090.3 309.46 1090.3 300.05 1090.3 C292.41 1090.3 284.77 1090.3 277.12 1090.31 C255.44 1090.32 233.76 1090.32 212.07 1090.32 C210.91 1090.32 209.74 1090.32 208.53 1090.32 C206.78 1090.32 206.78 1090.32 204.99 1090.32 C186.03 1090.32 167.08 1090.33 148.12 1090.34 C128.64 1090.36 109.16 1090.36 89.69 1090.36 C78.76 1090.36 67.83 1090.36 56.9 1090.38 C47.59 1090.38 38.29 1090.39 28.98 1090.38 C24.24 1090.38 19.49 1090.38 14.75 1090.39 C10.4 1090.39 6.05 1090.39 1.7 1090.38 C0.13 1090.38 -1.43 1090.38 -3 1090.39 C-28.94 1090.48 -28.94 1090.48 -37.03 1083.13 C-45.76 1073.52 -44.33 1058.92 -44.29 1046.78 C-44.29 1045.15 -44.29 1043.52 -44.3 1041.89 C-44.31 1037.44 -44.3 1032.99 -44.3 1028.54 C-44.29 1023.73 -44.3 1018.91 -44.3 1014.1 C-44.31 1004.69 -44.31 995.27 -44.31 985.85 C-44.3 978.2 -44.3 970.54 -44.3 962.89 C-44.3 961.8 -44.3 960.71 -44.3 959.58 C-44.3 957.37 -44.3 955.15 -44.31 952.93 C-44.31 932.17 -44.3 911.4 -44.29 890.63 C-44.28 872.83 -44.29 855.02 -44.3 837.22 C-44.31 816.52 -44.31 795.83 -44.3 775.14 C-44.3 772.93 -44.3 770.72 -44.3 768.51 C-44.3 767.43 -44.3 766.34 -44.3 765.22 C-44.3 757.58 -44.3 749.94 -44.31 742.29 C-44.31 732.98 -44.31 723.66 -44.3 714.34 C-44.3 709.59 -44.29 704.84 -44.3 700.09 C-44.31 695.73 -44.3 691.37 -44.29 687.02 C-44.29 685.45 -44.29 683.88 -44.3 682.31 C-44.37 656.52 -44.37 656.52 -37.93 648.01 C-28.26 638.43 -14.14 639.99 -1.56 639.99 C-0.13 639.99 1.31 639.99 2.74 639.98 C5.81 639.97 8.87 639.97 11.94 639.97 C16.79 639.96 21.64 639.94 26.49 639.92 C28.15 639.92 29.82 639.91 31.48 639.9 C32.31 639.9 33.15 639.9 34 639.9 C45.28 639.85 56.56 639.82 67.83 639.81 C75.46 639.8 83.09 639.78 90.72 639.74 C94.75 639.72 98.78 639.71 102.81 639.71 C106.59 639.72 110.38 639.7 114.16 639.67 C115.55 639.67 116.94 639.67 118.33 639.67 C120.22 639.68 122.11 639.67 124.01 639.65 C125.6 639.64 125.6 639.64 127.22 639.64 C130.04 639.31 130.04 639.31 132.31 637.56 C134.6 634.21 134.47 631.89 134.47 627.85 C134.48 627.11 134.49 626.37 134.49 625.62 C134.51 623.15 134.5 620.69 134.48 618.22 C134.49 616.45 134.5 614.68 134.5 612.92 C134.52 608.12 134.52 603.31 134.5 598.51 C134.49 593.49 134.5 588.47 134.51 583.45 C134.52 575.01 134.51 566.58 134.49 558.15 C134.46 548.39 134.47 538.64 134.49 528.88 C134.51 520.51 134.51 512.14 134.5 503.77 C134.5 498.77 134.5 493.77 134.51 488.77 C134.52 484.07 134.51 479.37 134.49 474.67 C134.49 472.94 134.49 471.21 134.5 469.48 C134.51 467.13 134.49 464.78 134.47 462.42 C134.47 461.1 134.47 459.78 134.47 458.43 C134.21 455.11 134.21 455.11 132.3 452.71 C129.35 450.72 127.61 450.63 124.07 450.63 C122.86 450.62 121.65 450.61 120.41 450.59 C119.08 450.6 117.74 450.61 116.41 450.62 C115 450.61 113.59 450.61 112.18 450.6 C109.15 450.58 106.12 450.58 103.09 450.59 C98.28 450.6 93.48 450.58 88.67 450.56 C81.06 450.53 73.44 450.52 65.83 450.51 C52.23 450.51 38.63 450.48 25.04 450.43 C20.27 450.41 15.51 450.41 10.74 450.41 C7.76 450.41 4.77 450.4 1.79 450.39 C-0.23 450.39 -2.24 450.4 -4.26 450.4 C-27.65 450.3 -27.65 450.3 -36.66 443.01 C-45.62 432.16 -44.18 418.42 -44.17 405.1 C-44.17 403.48 -44.17 401.86 -44.18 400.24 C-44.18 395.8 -44.18 391.37 -44.18 386.94 C-44.18 382.15 -44.19 377.36 -44.19 372.57 C-44.2 363.2 -44.2 353.82 -44.2 344.45 C-44.2 336.83 -44.2 329.21 -44.21 321.58 C-44.22 299.96 -44.22 278.34 -44.22 256.72 C-44.22 255.55 -44.22 254.39 -44.22 253.19 C-44.22 252.02 -44.22 250.85 -44.22 249.65 C-44.22 230.75 -44.23 211.85 -44.24 192.95 C-44.26 173.52 -44.26 154.1 -44.26 134.68 C-44.26 123.78 -44.27 112.88 -44.28 101.98 C-44.29 92.71 -44.29 83.43 -44.28 74.15 C-44.28 69.42 -44.28 64.69 -44.29 59.96 C-44.29 55.62 -44.29 51.28 -44.28 46.95 C-44.28 45.38 -44.28 43.82 -44.29 42.26 C-44.38 16.53 -44.38 16.53 -37.93 8.01 C-27.93 -1.91 -12.99 -0.01 0 0 Z M23.74 67.91 C20.96 72.95 21.28 77.72 21.33 83.39 C21.32 84.65 21.31 85.91 21.31 87.21 C21.29 90.7 21.3 94.19 21.31 97.68 C21.32 101.45 21.31 105.21 21.29 108.98 C21.27 116.35 21.27 123.73 21.29 131.1 C21.3 137.1 21.3 143.09 21.3 149.09 C21.3 149.94 21.29 150.79 21.29 151.67 C21.29 153.4 21.29 155.13 21.29 156.87 C21.27 173.11 21.29 189.36 21.32 205.61 C21.34 219.55 21.34 233.5 21.31 247.44 C21.29 263.63 21.28 279.82 21.29 296 C21.29 297.73 21.29 299.46 21.3 301.18 C21.3 302.03 21.3 302.88 21.3 303.76 C21.3 309.74 21.3 315.73 21.28 321.72 C21.27 329.01 21.27 336.31 21.3 343.6 C21.31 347.33 21.32 351.05 21.3 354.77 C21.28 358.81 21.31 362.84 21.33 366.87 C21.32 368.05 21.31 369.23 21.3 370.45 C21.35 375.1 21.48 378.25 23.74 382.36 C28.79 385.13 33.55 384.82 39.23 384.77 C41.11 384.78 41.11 384.78 43.04 384.79 C46.53 384.81 50.02 384.8 53.51 384.79 C57.28 384.78 61.04 384.79 64.81 384.81 C72.18 384.83 79.56 384.82 86.94 384.81 C92.93 384.8 98.92 384.8 104.92 384.8 C106.2 384.8 106.2 384.8 107.5 384.81 C109.23 384.81 110.97 384.81 112.7 384.81 C128.94 384.82 145.19 384.81 161.44 384.78 C175.38 384.76 189.33 384.76 203.27 384.79 C219.46 384.81 235.65 384.82 251.84 384.81 C253.56 384.81 255.29 384.8 257.01 384.8 C258.29 384.8 258.29 384.8 259.59 384.8 C265.57 384.8 271.56 384.8 277.55 384.82 C284.84 384.83 292.14 384.83 299.44 384.8 C303.16 384.79 306.88 384.78 310.6 384.8 C314.64 384.81 318.67 384.79 322.7 384.77 C324.48 384.79 324.48 384.79 326.28 384.8 C330.93 384.75 334.08 384.62 338.19 382.36 C340.97 377.31 340.65 372.54 340.6 366.87 C340.61 365.61 340.62 364.36 340.62 363.06 C340.64 359.57 340.63 356.08 340.62 352.59 C340.61 348.82 340.62 345.06 340.64 341.29 C340.66 333.91 340.66 326.54 340.64 319.16 C340.63 313.17 340.63 307.18 340.63 301.18 C340.63 300.33 340.64 299.48 340.64 298.6 C340.64 296.87 340.64 295.13 340.64 293.4 C340.66 277.15 340.64 260.91 340.61 244.66 C340.59 230.72 340.59 216.77 340.62 202.83 C340.64 186.64 340.65 170.45 340.64 154.26 C340.64 152.54 340.64 150.81 340.63 149.09 C340.63 148.24 340.63 147.39 340.63 146.51 C340.63 140.52 340.63 134.54 340.65 128.55 C340.66 121.25 340.66 113.96 340.63 106.66 C340.62 102.94 340.61 99.22 340.63 95.49 C340.65 91.46 340.63 87.43 340.6 83.39 C340.61 82.21 340.62 81.03 340.63 79.82 C340.58 75.17 340.45 72.02 338.19 67.91 C333.14 65.13 328.38 65.45 322.7 65.5 C321.45 65.49 320.19 65.48 318.89 65.48 C315.4 65.45 311.91 65.46 308.42 65.48 C304.65 65.49 300.89 65.47 297.12 65.46 C289.75 65.44 282.37 65.44 274.99 65.46 C269 65.47 263.01 65.47 257.01 65.46 C256.16 65.46 255.31 65.46 254.43 65.46 C252.7 65.46 250.97 65.46 249.23 65.46 C232.99 65.44 216.74 65.46 200.49 65.49 C186.55 65.51 172.6 65.5 158.66 65.48 C142.47 65.46 126.28 65.44 110.09 65.46 C108.37 65.46 106.64 65.46 104.92 65.46 C103.64 65.47 103.64 65.47 102.34 65.47 C96.36 65.47 90.37 65.46 84.38 65.45 C77.09 65.44 69.79 65.44 62.49 65.47 C58.77 65.48 55.05 65.49 51.33 65.47 C47.29 65.45 43.26 65.47 39.23 65.5 C37.45 65.48 37.45 65.48 35.65 65.46 C31 65.52 27.85 65.65 23.74 67.91 Z M663.74 67.91 C660.96 72.95 661.28 77.72 661.33 83.39 C661.32 84.65 661.31 85.91 661.31 87.21 C661.29 90.7 661.3 94.19 661.31 97.68 C661.32 101.45 661.31 105.21 661.29 108.98 C661.27 116.35 661.27 123.73 661.29 131.1 C661.3 137.1 661.3 143.09 661.3 149.09 C661.3 149.94 661.29 150.79 661.29 151.67 C661.29 153.4 661.29 155.13 661.29 156.87 C661.27 173.11 661.29 189.36 661.32 205.61 C661.34 219.55 661.34 233.5 661.31 247.44 C661.29 263.63 661.28 279.82 661.29 296 C661.29 297.73 661.29 299.46 661.3 301.18 C661.3 302.03 661.3 302.88 661.3 303.76 C661.3 309.74 661.3 315.73 661.28 321.72 C661.27 329.01 661.27 336.31 661.3 343.6 C661.31 347.33 661.32 351.05 661.3 354.77 C661.28 358.81 661.31 362.84 661.33 366.87 C661.32 368.05 661.31 369.23 661.3 370.45 C661.35 375.1 661.48 378.25 663.74 382.36 C668.79 385.13 673.55 384.82 679.23 384.77 C681.11 384.78 681.11 384.78 683.04 384.79 C686.53 384.81 690.02 384.8 693.51 384.79 C697.28 384.78 701.04 384.79 704.81 384.81 C712.18 384.83 719.56 384.82 726.94 384.81 C732.93 384.8 738.92 384.8 744.92 384.8 C746.2 384.8 746.2 384.8 747.5 384.81 C749.23 384.81 750.97 384.81 752.7 384.81 C768.94 384.82 785.19 384.81 801.44 384.78 C815.38 384.76 829.33 384.76 843.27 384.79 C859.46 384.81 875.65 384.82 891.84 384.81 C893.56 384.81 895.29 384.8 897.01 384.8 C898.29 384.8 898.29 384.8 899.59 384.8 C905.57 384.8 911.56 384.8 917.55 384.82 C924.84 384.83 932.14 384.83 939.44 384.8 C943.16 384.79 946.88 384.78 950.6 384.8 C954.64 384.81 958.67 384.79 962.7 384.77 C964.48 384.79 964.48 384.79 966.28 384.8 C970.93 384.75 974.08 384.62 978.19 382.36 C980.97 377.31 980.65 372.54 980.6 366.87 C980.61 365.61 980.62 364.36 980.62 363.06 C980.64 359.57 980.63 356.08 980.62 352.59 C980.61 348.82 980.62 345.06 980.64 341.29 C980.66 333.91 980.66 326.54 980.64 319.16 C980.63 313.17 980.63 307.18 980.63 301.18 C980.63 300.33 980.64 299.48 980.64 298.6 C980.64 296.87 980.64 295.13 980.64 293.4 C980.66 277.15 980.64 260.91 980.61 244.66 C980.59 230.72 980.59 216.77 980.62 202.83 C980.64 186.64 980.65 170.45 980.64 154.26 C980.64 152.54 980.64 150.81 980.63 149.09 C980.63 148.24 980.63 147.39 980.63 146.51 C980.63 140.52 980.63 134.54 980.65 128.55 C980.66 121.25 980.66 113.96 980.63 106.66 C980.62 102.94 980.61 99.22 980.63 95.49 C980.65 91.46 980.63 87.43 980.6 83.39 C980.61 82.21 980.62 81.03 980.63 79.82 C980.58 75.17 980.45 72.02 978.19 67.91 C973.14 65.13 968.38 65.45 962.7 65.5 C961.45 65.49 960.19 65.48 958.89 65.48 C955.4 65.45 951.91 65.46 948.42 65.48 C944.65 65.49 940.89 65.47 937.12 65.46 C929.75 65.44 922.37 65.44 914.99 65.46 C909 65.47 903.01 65.47 897.01 65.46 C896.16 65.46 895.31 65.46 894.43 65.46 C892.7 65.46 890.97 65.46 889.23 65.46 C872.99 65.44 856.74 65.46 840.49 65.49 C826.55 65.51 812.6 65.5 798.66 65.48 C782.47 65.46 766.28 65.44 750.09 65.46 C748.37 65.46 746.64 65.46 744.92 65.46 C743.64 65.47 743.64 65.47 742.34 65.47 C736.36 65.47 730.37 65.46 724.38 65.45 C717.09 65.44 709.79 65.44 702.49 65.47 C698.77 65.48 695.05 65.49 691.33 65.47 C687.29 65.45 683.26 65.47 679.23 65.5 C677.45 65.48 677.45 65.48 675.65 65.46 C671 65.52 667.85 65.65 663.74 67.91 Z M407.54 247.74 C405.42 250.97 405.46 253.16 405.46 257.02 C405.45 257.71 405.45 258.4 405.44 259.12 C405.43 261.44 405.44 263.76 405.45 266.08 C405.45 267.74 405.44 269.41 405.43 271.07 C405.41 274.66 405.41 278.24 405.42 281.83 C405.43 287.51 405.41 293.19 405.39 298.86 C405.36 307.86 405.35 316.85 405.34 325.85 C405.34 341.92 405.31 357.99 405.26 374.07 C405.24 379.7 405.24 385.34 405.24 390.97 C405.24 394.5 405.23 398.02 405.22 401.54 C405.22 403.16 405.22 404.79 405.23 406.41 C405.3 434.54 405.3 434.54 398.43 441.75 C388.16 451.22 373.39 449.28 360.3 449.28 C358.64 449.28 356.97 449.28 355.3 449.29 C351.73 449.29 348.15 449.3 344.58 449.3 C338.93 449.31 333.27 449.32 327.62 449.34 C325.68 449.35 323.74 449.36 321.8 449.36 C320.83 449.37 319.86 449.37 318.86 449.37 C305.72 449.41 292.57 449.45 279.42 449.46 C270.54 449.47 261.65 449.49 252.76 449.53 C248.07 449.55 243.37 449.56 238.67 449.56 C234.26 449.55 229.85 449.57 225.44 449.59 C223.82 449.6 222.2 449.6 220.58 449.59 C218.37 449.58 216.16 449.6 213.95 449.62 C212.1 449.63 212.1 449.63 210.21 449.63 C206.23 450.25 204.6 451.09 201.97 454.13 C201.46 456.8 201.29 458.83 201.33 461.5 C201.32 462.61 201.32 462.61 201.31 463.75 C201.29 466.25 201.3 468.74 201.32 471.23 C201.31 473.02 201.3 474.81 201.29 476.59 C201.27 481.45 201.28 486.3 201.29 491.16 C201.31 496.24 201.29 501.31 201.29 506.39 C201.28 514.92 201.29 523.45 201.31 531.97 C201.34 541.84 201.33 551.7 201.3 561.56 C201.28 570.03 201.28 578.49 201.29 586.96 C201.3 592.01 201.3 597.07 201.28 602.13 C201.27 606.88 201.28 611.64 201.31 616.39 C201.31 618.14 201.31 619.88 201.3 621.63 C201.29 624.01 201.31 626.39 201.33 628.77 C201.31 629.81 201.31 629.81 201.3 630.87 C201.37 634.34 201.77 635.91 204.07 638.56 C207.61 640.48 209.91 640.64 213.93 640.64 C214.97 640.65 214.97 640.65 216.02 640.66 C218.33 640.67 220.63 640.66 222.93 640.65 C224.59 640.65 226.24 640.66 227.9 640.67 C231.46 640.68 235.02 640.69 238.58 640.68 C244.22 640.67 249.86 640.69 255.5 640.71 C264.44 640.74 273.37 640.75 282.31 640.75 C298.27 640.76 314.24 640.79 330.21 640.84 C335.81 640.86 341.4 640.86 347 640.86 C350.5 640.86 354 640.86 357.5 640.87 C359.11 640.88 360.72 640.88 362.33 640.87 C387.17 640.81 387.17 640.81 395.97 646.13 C396.96 646.46 397.95 646.79 398.97 647.13 C399.97 648.7 399.97 648.7 400.97 651.13 C401.48 652.33 402 653.53 402.53 654.76 C406.09 664.57 405.11 675.61 405.11 685.9 C405.11 687.58 405.11 689.26 405.12 690.94 C405.13 694.54 405.13 698.14 405.13 701.74 C405.14 707.43 405.16 713.12 405.18 718.81 C405.18 720.76 405.19 722.71 405.19 724.66 C405.2 725.64 405.2 726.61 405.2 727.62 C405.25 740.85 405.28 754.09 405.29 767.32 C405.3 776.27 405.32 785.21 405.36 794.16 C405.38 798.89 405.39 803.62 405.39 808.35 C405.38 812.79 405.4 817.23 405.42 821.67 C405.43 823.3 405.43 824.93 405.42 826.56 C405.42 828.78 405.43 831.01 405.45 833.23 C405.46 834.47 405.46 835.72 405.46 837 C405.75 840.16 405.75 840.16 407.54 842.53 C410.78 844.67 413.57 844.69 417.33 844.64 C418.07 844.65 418.82 844.65 419.58 844.66 C422.08 844.68 424.57 844.66 427.06 844.65 C428.85 844.66 430.64 844.66 432.42 844.67 C437.28 844.69 442.13 844.68 446.99 844.67 C452.07 844.66 457.15 844.67 462.22 844.68 C470.75 844.68 479.28 844.67 487.81 844.66 C497.67 844.63 507.53 844.64 517.4 844.66 C525.86 844.68 534.32 844.68 542.79 844.67 C547.84 844.67 552.9 844.67 557.96 844.68 C562.71 844.69 567.47 844.68 572.22 844.66 C573.97 844.65 575.71 844.66 577.46 844.66 C579.84 844.68 582.22 844.66 584.6 844.64 C585.3 844.65 585.99 844.66 586.7 844.67 C589.85 844.62 591.74 844.28 594.39 842.53 C596.52 839.29 596.47 837.08 596.47 833.21 C596.48 832.51 596.48 831.82 596.49 831.1 C596.5 828.76 596.49 826.43 596.48 824.1 C596.48 822.42 596.49 820.75 596.5 819.07 C596.52 815.47 596.52 811.86 596.51 808.25 C596.5 802.54 596.52 796.83 596.54 791.12 C596.57 782.07 596.58 773.02 596.59 763.97 C596.59 747.81 596.62 731.64 596.67 715.47 C596.69 709.8 596.69 704.13 596.69 698.46 C596.69 694.92 596.7 691.38 596.71 687.83 C596.71 686.2 596.71 684.57 596.7 682.94 C596.64 656.64 596.64 656.64 602.3 648.79 C612.27 638.9 627.8 640.99 640.72 640.99 C642.4 640.99 644.07 640.99 645.75 640.98 C649.35 640.97 652.94 640.97 656.54 640.97 C662.22 640.96 667.91 640.94 673.59 640.92 C675.55 640.92 677.5 640.91 679.45 640.9 C680.42 640.9 681.4 640.9 682.4 640.9 C695.63 640.85 708.85 640.82 722.08 640.81 C731.02 640.8 739.96 640.78 748.9 640.74 C753.62 640.72 758.35 640.71 763.07 640.71 C767.51 640.72 771.95 640.7 776.39 640.67 C778.02 640.67 779.64 640.67 781.27 640.67 C783.5 640.68 785.72 640.67 787.94 640.65 C789.8 640.64 789.8 640.64 791.71 640.64 C795.7 640.02 797.32 639.19 799.97 636.13 C800.47 633.47 800.64 631.43 800.6 628.77 C800.61 627.65 800.61 627.65 800.62 626.52 C800.64 624.02 800.63 621.53 800.61 619.04 C800.62 617.25 800.63 615.46 800.64 613.67 C800.66 608.82 800.65 603.96 800.64 599.11 C800.62 594.03 800.64 588.95 800.64 583.88 C800.65 575.35 800.64 566.82 800.62 558.29 C800.59 548.43 800.6 538.57 800.63 528.7 C800.65 520.24 800.65 511.78 800.64 503.31 C800.63 498.25 800.63 493.2 800.65 488.14 C800.66 483.39 800.65 478.63 800.62 473.88 C800.62 472.13 800.62 470.39 800.63 468.64 C800.64 466.26 800.63 463.88 800.6 461.5 C800.62 460.46 800.62 460.46 800.63 459.39 C800.56 455.92 800.16 454.36 797.86 451.71 C794.32 449.78 792.02 449.63 788 449.63 C787.31 449.62 786.62 449.62 785.91 449.61 C783.6 449.59 781.3 449.61 779 449.62 C777.34 449.61 775.69 449.61 774.03 449.6 C770.47 449.58 766.91 449.58 763.35 449.59 C757.71 449.6 752.07 449.58 746.43 449.56 C737.49 449.53 728.56 449.52 719.63 449.51 C703.66 449.51 687.69 449.48 671.72 449.43 C666.12 449.41 660.53 449.41 654.93 449.41 C651.43 449.41 647.93 449.4 644.43 449.39 C642.82 449.39 641.21 449.39 639.6 449.4 C614.76 449.46 614.76 449.46 605.97 444.13 C604.98 443.8 603.99 443.47 602.97 443.13 C601.97 441.57 601.97 441.57 600.97 439.13 C600.45 437.94 599.93 436.74 599.4 435.51 C595.84 425.7 596.82 414.66 596.82 404.36 C596.82 402.68 596.82 401.01 596.81 399.33 C596.8 395.73 596.8 392.13 596.8 388.53 C596.79 382.84 596.77 377.15 596.76 371.46 C596.75 369.51 596.74 367.56 596.74 365.61 C596.73 364.63 596.73 363.65 596.73 362.65 C596.68 349.41 596.65 336.18 596.64 322.95 C596.63 314 596.61 305.05 596.57 296.11 C596.55 291.38 596.54 286.65 596.54 281.92 C596.55 277.48 596.53 273.04 596.51 268.6 C596.5 266.97 596.5 265.34 596.51 263.71 C596.51 261.48 596.5 259.26 596.48 257.04 C596.47 255.79 596.47 254.55 596.47 253.27 C596.18 250.1 596.18 250.1 594.39 247.73 C591.15 245.6 588.36 245.58 584.6 245.63 C583.86 245.62 583.11 245.61 582.35 245.61 C579.85 245.59 577.36 245.6 574.87 245.62 C573.08 245.61 571.29 245.6 569.51 245.59 C564.65 245.58 559.8 245.58 554.94 245.6 C549.86 245.61 544.78 245.6 539.71 245.59 C531.18 245.58 522.65 245.59 514.12 245.61 C504.26 245.63 494.4 245.63 484.53 245.6 C476.07 245.59 467.61 245.58 459.14 245.59 C454.09 245.6 449.03 245.6 443.97 245.59 C439.22 245.58 434.46 245.58 429.71 245.61 C427.96 245.61 426.22 245.61 424.47 245.6 C422.09 245.59 419.71 245.61 417.33 245.63 C416.63 245.62 415.94 245.61 415.23 245.6 C412.07 245.65 410.19 245.99 407.54 247.74 Z M663.74 707.91 C660.96 712.95 661.28 717.72 661.33 723.39 C661.32 724.65 661.31 725.91 661.31 727.21 C661.29 730.7 661.3 734.19 661.31 737.68 C661.32 741.45 661.31 745.21 661.29 748.98 C661.27 756.35 661.27 763.73 661.29 771.1 C661.3 777.1 661.3 783.09 661.3 789.09 C661.3 789.94 661.29 790.79 661.29 791.67 C661.29 793.4 661.29 795.13 661.29 796.87 C661.27 813.11 661.29 829.36 661.32 845.61 C661.34 859.55 661.34 873.5 661.31 887.44 C661.29 903.63 661.28 919.82 661.29 936 C661.29 937.73 661.29 939.46 661.3 941.18 C661.3 942.03 661.3 942.88 661.3 943.76 C661.3 949.74 661.3 955.73 661.28 961.72 C661.27 969.01 661.27 976.31 661.3 983.6 C661.31 987.33 661.32 991.05 661.3 994.77 C661.28 998.81 661.31 1002.84 661.33 1006.87 C661.32 1008.05 661.31 1009.23 661.3 1010.45 C661.35 1015.1 661.48 1018.25 663.74 1022.36 C668.79 1025.13 673.55 1024.82 679.23 1024.77 C681.11 1024.78 681.11 1024.78 683.04 1024.79 C686.53 1024.81 690.02 1024.8 693.51 1024.79 C697.28 1024.78 701.04 1024.79 704.81 1024.81 C712.18 1024.83 719.56 1024.82 726.94 1024.81 C732.93 1024.8 738.92 1024.8 744.92 1024.8 C746.2 1024.8 746.2 1024.8 747.5 1024.81 C749.23 1024.81 750.97 1024.81 752.7 1024.81 C768.94 1024.82 785.19 1024.81 801.44 1024.78 C815.38 1024.76 829.33 1024.76 843.27 1024.79 C859.46 1024.81 875.65 1024.82 891.84 1024.81 C893.56 1024.81 895.29 1024.8 897.01 1024.8 C898.29 1024.8 898.29 1024.8 899.59 1024.8 C905.57 1024.8 911.56 1024.8 917.55 1024.82 C924.84 1024.83 932.14 1024.83 939.44 1024.8 C943.16 1024.79 946.88 1024.78 950.6 1024.8 C954.64 1024.81 958.67 1024.79 962.7 1024.77 C964.48 1024.79 964.48 1024.79 966.28 1024.8 C970.93 1024.75 974.08 1024.62 978.19 1022.36 C980.97 1017.31 980.65 1012.54 980.6 1006.87 C980.61 1005.61 980.62 1004.36 980.62 1003.06 C980.64 999.57 980.63 996.08 980.62 992.59 C980.61 988.82 980.62 985.06 980.64 981.29 C980.66 973.91 980.66 966.54 980.64 959.16 C980.63 953.17 980.63 947.18 980.63 941.18 C980.63 940.33 980.64 939.48 980.64 938.6 C980.64 936.87 980.64 935.13 980.64 933.4 C980.66 917.15 980.64 900.91 980.61 884.66 C980.59 870.72 980.59 856.77 980.62 842.83 C980.64 826.64 980.65 810.45 980.64 794.26 C980.64 792.54 980.64 790.81 980.63 789.09 C980.63 788.24 980.63 787.39 980.63 786.51 C980.63 780.52 980.63 774.54 980.65 768.55 C980.66 761.25 980.66 753.96 980.63 746.66 C980.62 742.94 980.61 739.22 980.63 735.49 C980.65 731.46 980.63 727.43 980.6 723.39 C980.61 722.21 980.62 721.03 980.63 719.82 C980.58 715.17 980.45 712.02 978.19 707.91 C973.14 705.13 968.38 705.45 962.7 705.5 C961.45 705.49 960.19 705.48 958.89 705.48 C955.4 705.45 951.91 705.46 948.42 705.48 C944.65 705.49 940.89 705.47 937.12 705.46 C929.75 705.44 922.37 705.44 914.99 705.46 C909 705.47 903.01 705.47 897.01 705.46 C896.16 705.46 895.31 705.46 894.43 705.46 C892.7 705.46 890.97 705.46 889.23 705.46 C872.99 705.44 856.74 705.46 840.49 705.49 C826.55 705.51 812.6 705.5 798.66 705.48 C782.47 705.46 766.28 705.44 750.09 705.46 C748.37 705.46 746.64 705.46 744.92 705.46 C743.64 705.47 743.64 705.47 742.34 705.47 C736.36 705.47 730.37 705.46 724.38 705.45 C717.09 705.44 709.79 705.44 702.49 705.47 C698.77 705.48 695.05 705.49 691.33 705.47 C687.29 705.45 683.26 705.47 679.23 705.5 C677.45 705.48 677.45 705.48 675.65 705.46 C671 705.52 667.85 705.65 663.74 707.91 Z M26.97 708.13 C25.48 710.11 25.48 710.11 23.97 712.13 C25.29 713.12 26.61 714.11 27.97 715.13 C28.96 713.81 29.95 712.49 30.97 711.13 C29.65 710.14 28.33 709.15 26.97 708.13 Z M126.97 710.13 C125.48 712.75 125.48 712.75 124.97 716.13 C122.85 724.18 122.85 724.18 119.78 727.51 C115.28 730.1 110.61 731.64 105.65 733.13 C102.83 734.18 101.82 734.82 99.97 737.13 C99.1 739.65 99.1 739.65 98.53 742.45 C96.38 750.64 96.38 750.64 92.97 754.13 C89.39 755.8 85.72 756.96 81.97 758.13 C78.95 759.22 77.25 759.85 74.97 762.13 C74.45 763.87 74 765.62 73.59 767.38 C70.92 777.41 70.92 777.41 65.95 780.31 C62.41 781.96 58.87 783.21 55.09 784.2 C51.84 785.17 50.97 785.53 48.97 788.13 C48.26 790.23 47.64 792.36 47.09 794.51 C44.45 803.3 44.45 803.3 39.97 806.13 C36.64 807.24 33.33 808.2 29.93 809.04 C26.53 810.3 25.76 811.05 23.97 814.13 C23.34 818.46 23.5 822.82 23.53 827.2 C23.51 828.39 23.49 829.59 23.47 830.82 C23.47 831.97 23.47 833.11 23.47 834.29 C23.47 835.34 23.47 836.39 23.46 837.47 C23.72 840.28 23.72 840.28 26 842 C26.65 842.37 27.3 842.75 27.97 843.13 C31.69 839.28 32.93 835.59 34.25 830.54 C35.49 826.34 36.36 824.55 40.03 822.01 C43.53 820.12 46.93 819.38 50.85 818.82 C53.8 817.86 55.05 816.56 56.97 814.13 C58.12 811.05 58.12 811.05 58.9 807.7 C61.48 798.97 61.48 798.97 65.97 796.13 C69.26 795.07 72.54 794.13 75.91 793.32 C79.64 791.87 80.87 790.52 82.97 787.13 C84.09 783.85 84.91 780.56 85.74 777.19 C87.22 773.49 88.59 772.21 91.97 770.13 C95 769.21 98.01 768.64 101.13 768.04 C104.5 766.96 105.83 765.95 107.97 763.13 C109.12 760.05 109.12 760.05 109.9 756.7 C112.48 747.97 112.48 747.97 116.97 745.13 C120.26 744.03 123.54 743.07 126.91 742.22 C130.32 741.01 131.8 740.01 133.97 737.13 C134.94 734.28 134.94 734.28 135.47 731.2 C137.3 723.2 137.3 723.2 140.97 720.13 C144.77 718.26 148.67 717.21 152.78 716.2 C156.2 715.06 157.22 714.22 158.97 711.13 C157.31 709.12 156.43 708.21 153.82 707.76 C153.01 707.76 152.2 707.77 151.36 707.77 C150.01 707.77 150.01 707.77 148.63 707.77 C147.69 707.79 146.75 707.8 145.78 707.82 C144.86 707.82 143.94 707.81 142.99 707.81 C137.34 707.86 132.34 708.33 126.97 710.13 Z M254.97 710.13 C253.48 712.75 253.48 712.75 252.97 716.13 C250.85 724.18 250.85 724.18 247.78 727.51 C243.28 730.1 238.61 731.64 233.65 733.13 C230.83 734.18 229.82 734.82 227.97 737.13 C227.1 739.65 227.1 739.65 226.53 742.45 C224.38 750.64 224.38 750.64 220.97 754.13 C217.39 755.8 213.72 756.96 209.97 758.13 C206.95 759.22 205.25 759.85 202.97 762.13 C202.45 763.87 202 765.62 201.59 767.38 C198.92 777.41 198.92 777.41 193.95 780.31 C190.41 781.96 186.87 783.21 183.09 784.2 C179.84 785.17 178.97 785.53 176.97 788.13 C176.26 790.23 175.64 792.36 175.09 794.51 C172.45 803.3 172.45 803.3 167.97 806.13 C164.67 807.2 161.39 808.14 158.02 808.95 C154.33 810.38 153.06 811.81 150.97 815.13 C149.98 817.6 149.98 817.6 149.4 820.13 C146.95 828.84 146.95 828.84 143.31 831.21 C139 833.5 134.52 835.04 129.85 836.42 C127.76 837.06 127.76 837.06 125.97 839.13 C125.45 841.06 125 843 124.59 844.95 C122.58 853.17 122.58 853.17 118.97 856.13 C114.62 858.25 110.14 859.77 105.53 861.2 C102.77 862.21 101.79 862.88 99.97 865.13 C99.1 867.65 99.1 867.65 98.53 870.45 C96.38 878.64 96.38 878.64 92.97 882.13 C89.39 883.8 85.72 884.96 81.97 886.13 C78.95 887.22 77.25 887.85 74.97 890.13 C74.45 891.87 74 893.62 73.59 895.38 C70.92 905.41 70.92 905.41 65.95 908.31 C62.41 909.96 58.87 911.21 55.09 912.2 C51.84 913.17 50.97 913.53 48.97 916.13 C48.26 918.23 47.64 920.36 47.09 922.51 C44.45 931.3 44.45 931.3 39.97 934.13 C36.64 935.24 33.33 936.2 29.93 937.04 C26.53 938.3 25.76 939.05 23.97 942.13 C23.34 946.46 23.5 950.82 23.53 955.2 C23.51 956.39 23.49 957.59 23.47 958.82 C23.47 959.97 23.47 961.11 23.47 962.29 C23.47 963.34 23.47 964.39 23.46 965.47 C23.72 968.28 23.72 968.28 26 970 C26.65 970.37 27.3 970.75 27.97 971.13 C31.69 967.28 32.93 963.59 34.25 958.54 C35.49 954.34 36.36 952.55 40.03 950.01 C43.53 948.12 46.93 947.38 50.85 946.82 C53.8 945.86 55.05 944.56 56.97 942.13 C58.12 939.05 58.12 939.05 58.9 935.7 C61.48 926.97 61.48 926.97 65.97 924.13 C69.26 923.07 72.54 922.13 75.91 921.32 C79.64 919.87 80.87 918.52 82.97 915.13 C84.09 911.85 84.91 908.56 85.74 905.19 C87.22 901.49 88.59 900.21 91.97 898.13 C95 897.21 98.01 896.64 101.13 896.04 C104.5 894.96 105.83 893.95 107.97 891.13 C109.12 888.05 109.12 888.05 109.9 884.7 C112.48 875.97 112.48 875.97 116.97 873.13 C120.26 872.03 123.54 871.07 126.91 870.22 C130.32 869.01 131.8 868.01 133.97 865.13 C134.94 862.28 134.94 862.28 135.47 859.2 C137.3 851.2 137.3 851.2 140.97 848.13 C144.75 846.27 148.61 845.22 152.72 844.26 C156.74 842.86 157.82 841.81 159.97 838.13 C160.84 835.62 161.58 833.11 162.25 830.54 C163.49 826.34 164.36 824.55 168.03 822.01 C171.53 820.12 174.93 819.38 178.85 818.82 C181.8 817.86 183.05 816.56 184.97 814.13 C186.12 811.05 186.12 811.05 186.9 807.7 C189.48 798.97 189.48 798.97 193.97 796.13 C197.26 795.07 200.54 794.13 203.91 793.32 C207.64 791.87 208.87 790.52 210.97 787.13 C212.09 783.85 212.91 780.56 213.74 777.19 C215.22 773.49 216.59 772.21 219.97 770.13 C223 769.21 226.01 768.64 229.13 768.04 C232.5 766.96 233.83 765.95 235.97 763.13 C237.12 760.05 237.12 760.05 237.9 756.7 C240.48 747.97 240.48 747.97 244.97 745.13 C248.26 744.03 251.54 743.07 254.91 742.22 C258.32 741.01 259.8 740.01 261.97 737.13 C262.94 734.28 262.94 734.28 263.47 731.2 C265.3 723.2 265.3 723.2 268.97 720.13 C272.77 718.26 276.67 717.21 280.78 716.2 C284.2 715.06 285.22 714.22 286.97 711.13 C285.31 709.12 284.43 708.21 281.82 707.76 C281.01 707.76 280.2 707.77 279.36 707.77 C278.01 707.77 278.01 707.77 276.63 707.77 C275.69 707.79 274.75 707.8 273.78 707.82 C272.86 707.82 271.94 707.81 270.99 707.81 C265.34 707.86 260.34 708.33 254.97 710.13 Z M333.97 759.13 C330.99 761.6 330.36 763.73 329.53 767.45 C328.33 772.07 327.28 775.56 323.97 779.13 C319.9 781.51 315.63 783.01 311.09 784.2 C307.84 785.17 306.97 785.53 304.97 788.13 C304.26 790.23 303.64 792.36 303.09 794.51 C300.45 803.3 300.45 803.3 295.97 806.13 C292.67 807.2 289.39 808.14 286.02 808.95 C282.33 810.38 281.06 811.81 278.97 815.13 C277.98 817.6 277.98 817.6 277.4 820.13 C274.95 828.84 274.95 828.84 271.31 831.21 C267 833.5 262.52 835.04 257.85 836.42 C255.76 837.06 255.76 837.06 253.97 839.13 C253.45 841.06 253 843 252.59 844.95 C250.58 853.17 250.58 853.17 246.97 856.13 C242.62 858.25 238.14 859.77 233.53 861.2 C230.77 862.21 229.79 862.88 227.97 865.13 C227.1 867.65 227.1 867.65 226.53 870.45 C224.38 878.64 224.38 878.64 220.97 882.13 C217.39 883.8 213.72 884.96 209.97 886.13 C206.95 887.22 205.25 887.85 202.97 890.13 C202.45 891.87 202 893.62 201.59 895.38 C198.92 905.41 198.92 905.41 193.95 908.31 C190.41 909.96 186.87 911.21 183.09 912.2 C179.84 913.17 178.97 913.53 176.97 916.13 C176.26 918.23 175.64 920.36 175.09 922.51 C172.45 931.3 172.45 931.3 167.97 934.13 C164.67 935.2 161.39 936.14 158.02 936.95 C154.33 938.38 153.06 939.81 150.97 943.13 C149.98 945.6 149.98 945.6 149.4 948.13 C146.95 956.84 146.95 956.84 143.31 959.21 C139 961.5 134.52 963.04 129.85 964.42 C127.76 965.06 127.76 965.06 125.97 967.13 C125.45 969.06 125 971 124.59 972.95 C122.58 981.17 122.58 981.17 118.97 984.13 C114.62 986.25 110.14 987.77 105.53 989.2 C102.77 990.21 101.79 990.87 99.97 993.13 C99.07 995.69 99.07 995.69 98.47 998.51 C97.18 1003.55 96.12 1007.38 91.97 1010.76 C88.24 1012.47 84.48 1013.32 80.49 1014.19 C77.53 1015.29 76.59 1016.48 74.97 1019.13 C76.77 1021.47 77.66 1022.09 80.63 1022.52 C81.68 1022.53 82.73 1022.53 83.8 1022.53 C84.95 1022.54 86.1 1022.54 87.28 1022.54 C88.47 1022.53 89.67 1022.52 90.9 1022.51 C92.1 1022.52 93.29 1022.53 94.52 1022.54 C96.24 1022.54 96.24 1022.54 97.99 1022.53 C99.04 1022.53 100.09 1022.53 101.17 1022.52 C104.34 1022.08 105.7 1021.36 107.97 1019.13 C109.13 1016.13 109.13 1016.13 109.9 1012.76 C112.48 1003.97 112.48 1003.97 116.97 1001.13 C120.26 1000.03 123.54 999.07 126.91 998.22 C130.32 997.01 131.8 996.01 133.97 993.13 C134.94 990.28 134.94 990.28 135.47 987.2 C137.3 979.2 137.3 979.2 140.97 976.13 C144.75 974.27 148.61 973.22 152.72 972.26 C156.74 970.86 157.82 969.81 159.97 966.13 C160.84 963.62 161.58 961.11 162.25 958.54 C163.49 954.34 164.36 952.55 168.03 950.01 C171.53 948.12 174.93 947.38 178.85 946.82 C181.8 945.86 183.05 944.56 184.97 942.13 C186.12 939.05 186.12 939.05 186.9 935.7 C189.48 926.97 189.48 926.97 193.97 924.13 C197.26 923.07 200.54 922.13 203.91 921.32 C207.64 919.87 208.87 918.52 210.97 915.13 C212.09 911.85 212.91 908.56 213.74 905.19 C215.22 901.49 216.59 900.21 219.97 898.13 C223 897.21 226.01 896.64 229.13 896.04 C232.5 894.96 233.83 893.95 235.97 891.13 C237.12 888.05 237.12 888.05 237.9 884.7 C240.48 875.97 240.48 875.97 244.97 873.13 C248.26 872.03 251.54 871.07 254.91 870.22 C258.32 869.01 259.8 868.01 261.97 865.13 C262.94 862.28 262.94 862.28 263.47 859.2 C265.3 851.2 265.3 851.2 268.97 848.13 C272.75 846.27 276.61 845.22 280.72 844.26 C284.74 842.86 285.82 841.81 287.97 838.13 C288.84 835.62 289.58 833.11 290.25 830.54 C291.49 826.34 292.36 824.55 296.03 822.01 C299.53 820.12 302.93 819.38 306.85 818.82 C309.8 817.86 311.05 816.56 312.97 814.13 C314.12 811.05 314.12 811.05 314.9 807.7 C317.48 798.97 317.48 798.97 321.97 796.13 C325.29 795.03 328.6 794.07 332 793.22 C334.95 792.33 334.95 792.33 336.85 790.56 C338.54 786.88 338.32 783.44 338.22 779.45 C338.2 778.64 338.19 777.83 338.18 777 C338.03 769.02 338.03 769.02 336.97 761.13 C335.98 760.47 334.99 759.81 333.97 759.13 Z M333.97 887.13 C330.99 889.6 330.36 891.73 329.53 895.45 C328.33 900.07 327.28 903.56 323.97 907.13 C319.9 909.51 315.63 911.01 311.09 912.2 C307.84 913.17 306.97 913.53 304.97 916.13 C304.26 918.23 303.64 920.36 303.09 922.51 C300.45 931.3 300.45 931.3 295.97 934.13 C292.67 935.2 289.39 936.14 286.02 936.95 C282.32 938.39 281.05 939.78 278.97 943.13 C278.01 945.84 278.01 945.84 277.47 948.63 C276.36 953.02 275.44 956.04 271.97 959.13 C267.44 961.44 262.73 962.91 257.88 964.39 C255.77 965.06 255.77 965.06 253.97 967.13 C253.45 969.06 253 971 252.59 972.95 C250.58 981.17 250.58 981.17 246.97 984.13 C242.62 986.25 238.14 987.77 233.53 989.2 C230.77 990.21 229.79 990.87 227.97 993.13 C227.07 995.69 227.07 995.69 226.47 998.51 C225.18 1003.55 224.12 1007.38 219.97 1010.76 C216.24 1012.47 212.48 1013.32 208.49 1014.19 C205.53 1015.29 204.59 1016.48 202.97 1019.13 C204.77 1021.47 205.66 1022.09 208.63 1022.52 C209.68 1022.53 210.73 1022.53 211.8 1022.53 C213.52 1022.54 213.52 1022.54 215.28 1022.54 C216.47 1022.53 217.67 1022.52 218.9 1022.51 C220.1 1022.52 221.29 1022.53 222.52 1022.54 C224.24 1022.54 224.24 1022.54 225.99 1022.53 C227.04 1022.53 228.09 1022.53 229.17 1022.52 C232.34 1022.08 233.7 1021.36 235.97 1019.13 C237.13 1016.13 237.13 1016.13 237.9 1012.76 C239.38 1007.62 240.39 1004.26 244.97 1001.13 C248.63 999.43 252.41 998.3 256.28 997.13 C259.12 996.08 260.12 995.48 261.97 993.13 C262.83 990.35 262.83 990.35 263.4 987.26 C265.27 979.31 265.27 979.31 268.97 976.13 C272.07 974.55 274.97 973.42 278.31 972.46 C283.09 971.13 283.09 971.13 286.84 968.07 C287.85 965.43 288.6 962.85 289.34 960.13 C290.66 955.57 292.03 953.02 295.97 950.13 C299.62 948.41 303.42 947.3 307.28 946.13 C310.14 945.07 311.1 944.49 312.97 942.13 C313.67 940.03 314.29 937.9 314.84 935.76 C317.48 926.97 317.48 926.97 321.97 924.13 C325.29 923.03 328.6 922.07 332 921.22 C334.95 920.33 334.95 920.33 336.85 918.56 C338.54 914.88 338.32 911.44 338.22 907.45 C338.2 906.64 338.19 905.83 338.18 905 C338.03 897.02 338.03 897.02 336.97 889.13 C335.98 888.47 334.99 887.81 333.97 887.13 Z M333.97 1015.13 C332.48 1017.11 332.48 1017.11 330.97 1019.13 C332.29 1020.12 333.61 1021.11 334.97 1022.13 C335.96 1020.81 336.95 1019.49 337.97 1018.13 C336.65 1017.14 335.33 1016.15 333.97 1015.13 Z " fill="#000000" transform="translate(139.0348663330078,94.86628723144531)"/>
</svg>
